<svg width="237" height="240" viewBox="0 0 237 240" fill="none" xmlns="http://www.w3.org/2000/svg">
<circle cx="117.5" cy="122.5" r="117.5" fill="#F5F5F5"/>
<rect x="180.988" y="180.94" width="126" height="167" rx="19" transform="rotate(-178.652 180.988 180.94)" fill="white" stroke="black" stroke-width="2"/>
<circle cx="142.916" cy="141.034" r="7" transform="rotate(-178.652 142.916 141.034)" fill="#9C9CA5"/>
<circle cx="94.9291" cy="139.904" r="7" transform="rotate(-178.652 94.9291 139.904)" fill="#9C9CA5"/>
<rect x="143.528" y="115.041" width="48" height="4" transform="rotate(-178.652 143.528 115.041)" fill="#9C9CA5"/>
<line x1="152.56" y1="71.2411" x2="65.5845" y2="69.1945" stroke="#D8D8DB" stroke-width="2"/>
<line x1="135.871" y1="57.8448" x2="65.8901" y2="56.1981" stroke="#D8D8DB" stroke-width="2"/>
<line x1="136.177" y1="44.8484" x2="66.196" y2="43.2017" stroke="#D8D8DB" stroke-width="2"/>
<line x1="136.483" y1="31.852" x2="66.5019" y2="30.2053" stroke="#D8D8DB" stroke-width="2"/>
<rect x="117.215" y="1.28138" width="126" height="167" rx="19" transform="rotate(19.9331 117.215 1.28138)" fill="white" stroke="black" stroke-width="2"/>
<circle cx="140.582" cy="51.241" r="7" transform="rotate(19.9331 140.582 51.241)" fill="#9C9CA5"/>
<circle cx="185.707" cy="67.6052" r="7" transform="rotate(19.9331 185.707 67.6052)" fill="#9C9CA5"/>
<rect x="131.718" y="75.6833" width="48" height="4" transform="rotate(19.9331 131.718 75.6833)" fill="#9C9CA5"/>
<line x1="109.197" y1="114.32" x2="190.985" y2="143.98" stroke="#D8D8DB" stroke-width="2"/>
<line x1="120.746" y1="132.337" x2="186.553" y2="156.201" stroke="#D8D8DB" stroke-width="2"/>
<line x1="116.315" y1="144.558" x2="182.121" y2="168.423" stroke="#D8D8DB" stroke-width="2"/>
<line x1="111.882" y1="156.779" x2="177.689" y2="180.644" stroke="#D8D8DB" stroke-width="2"/>
<ellipse cx="115.5" cy="203.999" rx="57.5" ry="4" fill="#D9D9D9"/>
</svg>
