<svg width="447" height="84" viewBox="0 0 447 84" fill="none" xmlns="http://www.w3.org/2000/svg">
<path d="M130.34 63.0244C126.585 63.0244 123.299 62.2018 120.483 60.5565C117.667 58.9112 115.458 56.4158 113.857 53.0703C112.31 49.6701 111.537 45.3923 111.537 40.237C111.537 35.0269 112.283 30.7491 113.774 27.4037C115.265 24.0582 117.418 21.5629 120.234 19.9176C123.051 18.2723 126.419 17.4496 130.34 17.4496C134.536 17.4496 138.291 18.4094 141.604 20.3289C144.973 22.1936 147.623 24.826 149.556 28.2263C151.544 31.6266 152.538 35.6302 152.538 40.237C152.538 44.8987 151.544 48.9297 149.556 52.33C147.623 55.7302 144.973 58.3627 141.604 60.2274C138.291 62.0921 134.536 63.0244 130.34 63.0244ZM104 78.3257V18.1077H116.341V27.1569L116.093 40.3193L116.921 53.3994V78.3257H104ZM128.103 52.4945C130.257 52.4945 132.162 52.0009 133.818 51.0137C135.53 50.0265 136.883 48.628 137.877 46.8182C138.926 44.9535 139.451 42.7598 139.451 40.237C139.451 37.6594 138.926 35.4656 137.877 33.6558C136.883 31.846 135.53 30.4475 133.818 29.4603C132.162 28.4731 130.257 27.9795 128.103 27.9795C125.95 27.9795 124.017 28.4731 122.305 29.4603C120.593 30.4475 119.24 31.846 118.247 33.6558C117.253 35.4656 116.756 37.6594 116.756 40.237C116.756 42.7598 117.253 44.9535 118.247 46.8182C119.24 48.628 120.593 50.0265 122.305 51.0137C124.017 52.0009 125.95 52.4945 128.103 52.4945Z" fill="white"/>
<path d="M161.187 62.3663V1.32568H174.109V62.3663H161.187Z" fill="white"/>
<path d="M213.434 62.3663V53.7285L212.606 51.8364V36.3706C212.606 33.6284 211.75 31.4895 210.038 29.9539C208.382 28.4183 205.814 27.6505 202.335 27.6505C199.961 27.6505 197.614 28.0344 195.295 28.8022C193.031 29.5151 191.098 30.5023 189.497 31.7637L184.858 22.7968C187.288 21.0967 190.215 19.7805 193.638 18.8481C197.062 17.9158 200.541 17.4496 204.075 17.4496C210.867 17.4496 216.14 19.0401 219.895 22.221C223.65 25.4019 225.527 30.3652 225.527 37.1109V62.3663H213.434ZM199.85 63.0244C196.372 63.0244 193.39 62.4485 190.905 61.2968C188.42 60.0903 186.515 58.4724 185.19 56.4432C183.864 54.414 183.202 52.138 183.202 49.6152C183.202 46.9827 183.837 44.6793 185.107 42.705C186.432 40.7306 188.503 39.195 191.319 38.0981C194.135 36.9464 197.807 36.3706 202.335 36.3706H214.18V43.8567H203.743C200.706 43.8567 198.608 44.3503 197.448 45.3374C196.344 46.3246 195.792 47.5586 195.792 49.0394C195.792 50.6847 196.427 52.0009 197.697 52.9881C199.022 53.9204 200.817 54.3866 203.081 54.3866C205.234 54.3866 207.167 53.893 208.879 52.9058C210.591 51.8638 211.833 50.3556 212.606 48.3812L214.594 54.3043C213.655 57.1562 211.943 59.3225 209.459 60.8032C206.974 62.284 203.771 63.0244 199.85 63.0244Z" fill="white"/>
<path d="M264.307 17.4496C267.841 17.4496 270.988 18.1626 273.749 19.5885C276.565 20.9596 278.774 23.0985 280.375 26.0052C281.977 28.857 282.778 32.5315 282.778 37.0287V62.3663H269.856V39.003C269.856 35.4382 269.056 32.8057 267.454 31.1056C265.908 29.4055 263.699 28.5554 260.828 28.5554C258.785 28.5554 256.935 28.9941 255.278 29.8716C253.677 30.6943 252.407 31.9831 251.468 33.7381C250.585 35.4931 250.143 37.7416 250.143 40.4838V62.3663H237.222V18.1077H249.563V30.3652L247.244 26.6633C248.845 23.7018 251.137 21.4258 254.119 19.8353C257.101 18.2448 260.497 17.4496 264.307 17.4496Z" fill="white"/>
<path d="M321.575 17.4496C325.109 17.4496 328.257 18.1626 331.018 19.5885C333.834 20.9596 336.042 23.0985 337.644 26.0052C339.245 28.857 340.046 32.5315 340.046 37.0287V62.3663H327.125V39.003C327.125 35.4382 326.324 32.8057 324.723 31.1056C323.176 29.4055 320.968 28.5554 318.096 28.5554C316.053 28.5554 314.203 28.9941 312.547 29.8716C310.945 30.6943 309.675 31.9831 308.737 33.7381C307.853 35.4931 307.411 37.7416 307.411 40.4838V62.3663H294.49V18.1077H306.831V30.3652L304.512 26.6633C306.114 23.7018 308.405 21.4258 311.387 19.8353C314.369 18.2448 317.765 17.4496 321.575 17.4496Z" fill="white"/>
<path d="M374.197 63.0244C369.117 63.0244 364.644 62.0372 360.779 60.0629C356.969 58.0885 354.015 55.4012 351.916 52.0009C349.818 48.5458 348.769 44.6245 348.769 40.237C348.769 35.7947 349.79 31.8734 351.833 28.4731C353.932 25.018 356.776 22.3307 360.365 20.4112C363.954 18.4368 368.013 17.4496 372.541 17.4496C376.903 17.4496 380.823 18.382 384.302 20.2466C387.836 22.0565 390.625 24.6889 392.668 28.1441C394.711 31.5443 395.733 35.6302 395.733 40.4015C395.733 40.8951 395.705 41.471 395.65 42.1291C395.595 42.7324 395.539 43.3082 395.484 43.8567H359.288V36.3706H388.692L383.722 38.5917C383.722 36.2883 383.253 34.2865 382.314 32.5864C381.376 30.8862 380.078 29.57 378.421 28.6376C376.765 27.6505 374.832 27.1569 372.623 27.1569C370.415 27.1569 368.454 27.6505 366.743 28.6376C365.086 29.57 363.788 30.9136 362.85 32.6686C361.911 34.3688 361.442 36.398 361.442 38.7562V40.7306C361.442 43.1437 361.966 45.2826 363.015 47.1473C364.12 48.9571 365.638 50.3556 367.571 51.3428C369.559 52.2751 371.878 52.7413 374.528 52.7413C376.903 52.7413 378.974 52.3848 380.741 51.6718C382.563 50.9589 384.219 49.8894 385.71 48.4635L392.585 55.8674C390.542 58.1708 387.974 59.9532 384.882 61.2146C381.79 62.4211 378.228 63.0244 374.197 63.0244Z" fill="white"/>
<path d="M404.335 62.3663V18.1077H416.677V30.612L414.937 26.9924C416.263 23.8663 418.388 21.508 421.315 19.9176C424.242 18.2723 427.803 17.4496 432 17.4496V29.2958C431.448 29.2409 430.951 29.2135 430.509 29.2135C430.067 29.1587 429.598 29.1312 429.101 29.1312C425.567 29.1312 422.696 30.1458 420.487 32.175C418.333 34.1494 417.257 37.248 417.257 41.471V62.3663H404.335Z" fill="white"/>
<rect x="436" y="51.3257" width="11" height="11" fill="white"/>
<path d="M84 41.0385C84 35.6492 82.9136 30.3127 80.8029 25.3337C78.6922 20.3547 75.5985 15.8307 71.6985 12.0199C67.7984 8.20911 63.1684 5.18624 58.0727 3.12387C52.977 1.06149 47.5155 -2.35571e-07 42 0C36.4845 2.35572e-07 31.023 1.06149 25.9273 3.12387C20.8316 5.18624 16.2016 8.20912 12.3015 12.0199C8.40145 15.8307 5.30776 20.3547 3.19706 25.3337C1.08636 30.3127 -4.82182e-07 35.6492 0 41.0385H12.5567C12.5567 37.2604 13.3183 33.5194 14.7979 30.029C16.2776 26.5385 18.4464 23.367 21.1804 20.6955C23.9145 18.0241 27.1603 15.9049 30.7325 14.4592C34.3048 13.0134 38.1334 12.2692 42 12.2692C45.8665 12.2692 49.6952 13.0134 53.2675 14.4592C56.8397 15.9049 60.0855 18.0241 62.8196 20.6955C65.5536 23.367 67.7224 26.5385 69.2021 30.029C70.6817 33.5194 71.4433 37.2604 71.4433 41.0385H84Z" fill="#60A5FA"/>
<path d="M73.2303 41.0391C73.2303 36.9096 72.4225 32.8206 70.853 29.0056C69.2835 25.1905 66.9831 21.724 64.0831 18.804C61.183 15.8841 57.7402 13.5679 53.9511 11.9876C50.162 10.4073 46.1008 9.59399 41.9996 9.59399C37.8983 9.59399 33.8372 10.4073 30.0481 11.9876C26.259 13.5679 22.8161 15.8841 19.9161 18.804C17.016 21.724 14.7156 25.1905 13.1461 29.0056C11.5766 32.8206 10.7688 36.9096 10.7688 41.0391H20.1058C20.1058 38.1442 20.6721 35.2777 21.7724 32.6032C22.8727 29.9287 24.4853 27.4986 26.5184 25.4516C28.5514 23.4047 30.9649 21.7809 33.6212 20.6731C36.2775 19.5653 39.1244 18.9951 41.9996 18.9951C44.8747 18.9951 47.7217 19.5653 50.3779 20.6731C53.0342 21.7809 55.4478 23.4046 57.4808 25.4516C59.5138 27.4986 61.1265 29.9287 62.2267 32.6032C63.327 35.2777 63.8933 38.1442 63.8933 41.0391H73.2303Z" fill="#BFDBFE"/>
<path d="M84 42.1055C84 47.4947 82.9136 52.8312 80.8029 57.8102C78.6922 62.7892 75.5985 67.3133 71.6985 71.124C67.7984 74.9348 63.1684 77.9577 58.0727 80.0201C52.977 82.0824 47.5155 83.1439 42 83.1439C36.4845 83.1439 31.023 82.0824 25.9273 80.0201C20.8316 77.9577 16.2016 74.9348 12.3015 71.124C8.40145 67.3133 5.30776 62.7892 3.19706 57.8102C1.08636 52.8312 -4.82182e-07 47.4947 0 42.1055H12.5567C12.5567 45.8835 13.3183 49.6245 14.7979 53.115C16.2776 56.6054 18.4464 59.7769 21.1804 62.4484C23.9145 65.1198 27.1603 67.239 30.7325 68.6848C34.3048 70.1306 38.1334 70.8747 42 70.8747C45.8665 70.8747 49.6952 70.1306 53.2675 68.6848C56.8397 67.239 60.0855 65.1198 62.8196 62.4484C65.5536 59.7769 67.7224 56.6054 69.2021 53.115C70.6817 49.6245 71.4433 45.8835 71.4433 42.1055H84Z" fill="#60A5FA"/>
<path d="M73.2303 42.1049C73.2303 46.2343 72.4225 50.3233 70.853 54.1384C69.2835 57.9535 66.9831 61.4199 64.0831 64.3399C61.183 67.2598 57.7402 69.5761 53.9511 71.1563C50.162 72.7366 46.1008 73.5499 41.9996 73.5499C37.8983 73.5499 33.8372 72.7366 30.0481 71.1563C26.259 69.5761 22.8161 67.2598 19.9161 64.3399C17.016 61.4199 14.7156 57.9535 13.1461 54.1384C11.5766 50.3233 10.7688 46.2343 10.7688 42.1049H20.1058C20.1058 44.9997 20.6721 47.8662 21.7724 50.5407C22.8727 53.2152 24.4853 55.6453 26.5184 57.6923C28.5514 59.7393 30.9649 61.363 33.6212 62.4708C36.2775 63.5786 39.1244 64.1488 41.9996 64.1488C44.8747 64.1488 47.7217 63.5786 50.3779 62.4708C53.0342 61.363 55.4478 59.7393 57.4808 57.6923C59.5138 55.6453 61.1265 53.2152 62.2267 50.5407C63.327 47.8662 63.8933 44.9997 63.8933 42.1049H73.2303Z" fill="#BFDBFE"/>
<circle cx="41.8934" cy="41.3493" r="14.1458" fill="#818CF8"/>
</svg>
