<svg xmlns="http://www.w3.org/2000/svg" width="96" height="96" viewBox="0 0 96 96" fill="none">
<path d="M64.3299 48C64.3299 57.1972 56.7972 64.653 47.5052 64.653C38.2131 64.653 30.6804 57.1972 30.6804 48C30.6804 38.8028 38.2131 31.3469 47.5052 31.3469C56.7972 31.3469 64.3299 38.8028 64.3299 48Z" fill="#93C5FD"/>
<path d="M47.1312 37.2681L49.4815 44.428H57.0875L50.9341 48.853L53.2845 56.0129L47.1312 51.5879L40.9778 56.0129L43.3282 48.853L37.1748 44.428H44.7808L47.1312 37.2681Z" fill="#4338CA"/>
<path d="M96 47.5102C96 41.2711 94.7584 35.093 92.3462 29.3288C89.934 23.5646 86.3983 18.3271 81.9411 13.9154C77.4839 9.50368 72.1924 6.00411 66.3688 3.6165C60.5452 1.22889 54.3034 -2.72721e-07 48 0C41.6965 2.72721e-07 35.4548 1.22889 29.6312 3.6165C23.8076 6.00411 18.5161 9.50369 14.0589 13.9154C9.60166 18.3271 6.06601 23.5646 3.65378 29.3288C1.24156 35.093 -5.51065e-07 41.2711 0 47.5102L14.3505 47.5102C14.3505 43.1364 15.2209 38.8054 16.9119 34.7645C18.603 30.7236 21.0816 27.052 24.2062 23.9592C27.3309 20.8665 31.0404 18.4131 35.1229 16.7394C39.2054 15.0656 43.5811 14.2041 48 14.2041C52.4189 14.2041 56.7946 15.0656 60.8771 16.7394C64.9596 18.4131 68.6691 20.8665 71.7938 23.9592C74.9184 27.052 77.397 30.7236 79.0881 34.7645C80.7791 38.8054 81.6495 43.1364 81.6495 47.5102H96Z" fill="#1D4ED8"/>
<path d="M86.1031 47.5102C86.1031 42.5575 85.1047 37.6533 83.165 33.0776C81.2253 28.5018 78.3822 24.3443 74.798 20.8422C71.2139 17.3401 66.9589 14.562 62.276 12.6667C57.593 10.7714 52.5739 9.7959 47.5052 9.7959C42.4364 9.7959 37.4173 10.7714 32.7344 12.6667C28.0515 14.562 23.7964 17.3401 20.2123 20.8422C16.6281 24.3443 13.785 28.5018 11.8453 33.0776C9.90559 37.6533 8.90723 42.5575 8.90723 47.5102L20.4468 47.5102C20.4468 44.0382 21.1467 40.6002 22.5065 37.3925C23.8663 34.1848 25.8594 31.2702 28.372 28.8151C30.8846 26.36 33.8675 24.4125 37.1504 23.0838C40.4333 21.7552 43.9518 21.0713 47.5052 21.0713C51.0585 21.0713 54.5771 21.7552 57.8599 23.0838C61.1428 24.4125 64.1257 26.36 66.6383 28.8151C69.1509 31.2701 71.144 34.1848 72.5038 37.3925C73.8636 40.6002 74.5635 44.0382 74.5635 47.5102H86.1031Z" fill="#60A5FA"/>
<path d="M76.2061 47.5103C76.2061 43.7153 75.4638 39.9576 74.0214 36.4515C72.579 32.9454 70.4649 29.7597 67.7998 27.0763C65.1347 24.3929 61.9707 22.2643 58.4885 20.812C55.0063 19.3598 51.2742 18.6123 47.5051 18.6123C43.736 18.6123 40.0039 19.3598 36.5217 20.812C33.0395 22.2643 29.8756 24.3929 27.2104 27.0763C24.5453 29.7597 22.4312 32.9454 20.9888 36.4515C19.5465 39.9576 18.8041 43.7153 18.8041 47.5103L27.3848 47.5103C27.3848 44.8499 27.9052 42.2156 28.9164 39.7577C29.9275 37.2999 31.4096 35.0666 33.2779 33.1854C35.1462 31.3043 37.3643 29.8121 39.8054 28.794C42.2465 27.7759 44.8629 27.2519 47.5051 27.2519C50.1473 27.2519 52.7637 27.7759 55.2048 28.794C57.6459 29.8121 59.864 31.3043 61.7323 33.1854C63.6007 35.0666 65.0827 37.2999 66.0939 39.7577C67.105 42.2156 67.6254 44.8499 67.6254 47.5103H76.2061Z" fill="#BFDBFE"/>
<path d="M96 48.4898C96 54.7289 94.7584 60.907 92.3462 66.6712C89.934 72.4354 86.3983 77.6729 81.9411 82.0846C77.4839 86.4963 72.1924 89.9959 66.3688 92.3835C60.5452 94.7711 54.3034 96 48 96C41.6965 96 35.4548 94.7711 29.6312 92.3835C23.8076 89.9959 18.5161 86.4963 14.0589 82.0846C9.60166 77.6729 6.06601 72.4354 3.65378 66.6712C1.24156 60.907 -5.51065e-07 54.7289 0 48.4898L14.3505 48.4898C14.3505 52.8636 15.2209 57.1946 16.9119 61.2355C18.603 65.2764 21.0816 68.948 24.2062 72.0408C27.3309 75.1335 31.0404 77.5869 35.1229 79.2606C39.2054 80.9344 43.5811 81.7959 48 81.7959C52.4189 81.7959 56.7946 80.9344 60.8771 79.2606C64.9596 77.5869 68.6691 75.1335 71.7938 72.0408C74.9184 68.948 77.397 65.2764 79.0881 61.2355C80.7791 57.1946 81.6495 52.8636 81.6495 48.4898H96Z" fill="#1D4ED8"/>
<path d="M86.1031 48.4898C86.1031 53.4425 85.1047 58.3467 83.165 62.9224C81.2253 67.4982 78.3822 71.6557 74.798 75.1578C71.2139 78.6599 66.9589 81.438 62.276 83.3333C57.593 85.2286 52.5739 86.2041 47.5052 86.2041C42.4364 86.2041 37.4173 85.2286 32.7344 83.3333C28.0515 81.438 23.7964 78.6599 20.2123 75.1578C16.6281 71.6557 13.785 67.4982 11.8453 62.9224C9.90559 58.3467 8.90723 53.4425 8.90723 48.4898L20.4468 48.4898C20.4468 51.9618 21.1467 55.3998 22.5065 58.6075C23.8663 61.8152 25.8594 64.7298 28.372 67.1849C30.8846 69.64 33.8675 71.5875 37.1504 72.9162C40.4333 74.2448 43.9518 74.9287 47.5052 74.9287C51.0585 74.9287 54.5771 74.2448 57.8599 72.9162C61.1428 71.5875 64.1257 69.64 66.6383 67.1849C69.1509 64.7299 71.144 61.8152 72.5038 58.6075C73.8636 55.3998 74.5635 51.9618 74.5635 48.4898H86.1031Z" fill="#60A5FA"/>
<path d="M76.2061 48.4897C76.2061 52.2847 75.4638 56.0424 74.0214 59.5485C72.579 63.0546 70.4649 66.2403 67.7998 68.9237C65.1347 71.6071 61.9707 73.7357 58.4885 75.188C55.0063 76.6402 51.2742 77.3877 47.5051 77.3877C43.736 77.3877 40.0039 76.6402 36.5217 75.188C33.0395 73.7357 29.8756 71.6071 27.2104 68.9237C24.5453 66.2403 22.4312 63.0546 20.9888 59.5485C19.5465 56.0424 18.8041 52.2847 18.8041 48.4897L27.3848 48.4897C27.3848 51.1501 27.9052 53.7844 28.9164 56.2423C29.9275 58.7001 31.4096 60.9334 33.2779 62.8146C35.1462 64.6957 37.3643 66.1879 39.8054 67.206C42.2465 68.2241 44.8629 68.7481 47.5051 68.7481C50.1473 68.7481 52.7637 68.2241 55.2048 67.206C57.6459 66.1879 59.864 64.6957 61.7323 62.8146C63.6007 60.9334 65.0827 58.7001 66.0939 56.2423C67.105 53.7844 67.6254 51.1501 67.6254 48.4897H76.2061Z" fill="#BFDBFE"/>
</svg>